<?xml version="1.0" standalone="no"?>
<!DOCTYPE svg PUBLIC "-//W3C//DTD SVG 20010904//EN"
 "http://www.w3.org/TR/2001/REC-SVG-20010904/DTD/svg10.dtd">
<svg version="1.0" xmlns="http://www.w3.org/2000/svg"
 width="709.000000pt" height="541.000000pt" viewBox="0 0 709.000000 541.000000"
 preserveAspectRatio="xMidYMid meet">
<metadata>
Created by potrace 1.16, written by Peter Selinger 2001-2019
</metadata>
<g transform="translate(0.000000,541.000000) scale(0.100000,-0.100000)"
fill="#000000" stroke="none">
<path d="M3123 4314 l-63 -36 0 -241 0 -242 88 -47 c48 -26 115 -64 150 -83
l62 -36 0 238 0 238 -130 73 c-96 54 -130 79 -130 93 0 10 4 19 10 19 5 0 18
7 27 15 10 8 27 21 38 29 33 25 14 17 -52 -20z"/>
<path d="M2142 3763 l-44 -25 2 -367 c2 -201 5 -431 8 -510 l5 -143 71 -47
c39 -25 100 -67 136 -92 36 -25 71 -49 78 -53 9 -6 12 101 12 518 l0 525 -82
47 c-46 26 -107 60 -135 76 -29 16 -55 33 -58 38 -3 5 11 20 32 34 48 33 32
32 -25 -1z"/>
<path d="M1970 2306 l0 -151 143 -19 c119 -16 145 -22 159 -40 17 -21 18 -21
82 44 l65 65 -58 67 c-31 37 -66 84 -77 105 l-20 38 -128 17 c-70 9 -136 18
-147 21 -18 5 -19 -2 -19 -147z"/>
<path d="M2260 1887 c0 -149 1 -154 23 -165 24 -12 96 -53 199 -113 36 -21 69
-39 72 -39 3 0 6 67 6 148 l0 149 -112 63 c-62 35 -130 74 -150 87 l-38 23 0
-153z"/>
<path d="M2812 1829 l3 -153 57 -17 c31 -9 100 -25 153 -35 l96 -19 15 -55
c41 -147 42 -146 37 15 -4 115 -11 171 -29 239 -13 49 -27 93 -31 96 -5 4 -69
21 -143 39 -74 18 -141 35 -148 38 -10 4 -12 -27 -10 -148z"/>
<path d="M3930 1835 c0 -108 -3 -147 -12 -149 -7 -3 -26 -7 -42 -11 -15 -3
-26 -8 -23 -11 3 -3 21 -1 41 4 33 9 47 5 158 -44 67 -30 124 -54 127 -54 9 0
3 293 -6 300 -8 6 -139 66 -210 97 l-33 13 0 -145z"/>
<path d="M3596 1806 c-20 -64 -26 -107 -27 -182 0 -55 -4 -123 -8 -151 -4 -29
-5 -53 -1 -53 4 0 19 42 34 92 15 51 33 96 39 100 9 6 9 8 0 8 -8 0 -10 36 -6
135 3 74 3 135 0 135 -3 0 -17 -38 -31 -84z"/>
<path d="M845 977 c-3 -7 -4 -138 -3 -292 l3 -280 73 -3 72 -3 0 126 0 126
108 -3 107 -3 3 -123 3 -123 72 3 72 3 0 290 0 290 -72 3 -73 3 0 -116 0 -115
-110 0 -110 0 0 115 0 115 -70 0 c-48 0 -72 -4 -75 -13z"/>
<path d="M1619 963 c-40 -104 -209 -557 -209 -560 0 -2 34 -3 76 -1 l77 3 20
53 20 53 111 -3 111 -3 19 -52 19 -53 79 0 c73 0 79 2 73 18 -4 9 -55 142
-113 295 l-105 277 -84 0 c-82 0 -84 -1 -94 -27z m133 -247 c15 -44 28 -83 28
-88 0 -4 -31 -8 -70 -8 -38 0 -70 1 -70 3 0 7 61 181 67 190 4 7 8 6 11 -3 3
-8 18 -51 34 -94z"/>
<path d="M2075 977 c-3 -7 -4 -138 -3 -292 l3 -280 72 -3 73 -3 2 177 3 176
118 -176 119 -177 71 3 72 3 0 290 0 290 -72 3 -73 3 -2 -177 -3 -177 -118
177 -117 176 -70 0 c-48 0 -72 -4 -75 -13z"/>
<path d="M2700 695 l0 -297 158 4 c136 3 164 7 208 27 109 48 168 145 167 272
-1 87 -27 151 -85 206 -65 63 -115 77 -290 81 l-158 4 0 -297z m306 149 c51
-24 77 -75 78 -148 1 -109 -60 -166 -177 -166 l-57 0 0 165 0 165 61 0 c35 0
75 -7 95 -16z"/>
<path d="M3271 968 c6 -13 54 -102 105 -199 l94 -175 0 -98 0 -97 73 3 72 3 5
105 c6 116 -9 81 156 386 24 45 44 84 44 88 0 3 -36 6 -81 6 l-80 0 -58 -122
-58 -123 -58 123 -58 122 -84 0 c-84 0 -84 0 -72 -22z"/>
<path d="M4201 959 c-101 -50 -153 -141 -153 -264 0 -131 75 -241 191 -280
126 -41 272 2 339 99 46 69 44 76 -29 76 -56 0 -63 -3 -92 -34 -84 -88 -234
-55 -278 61 -16 43 -11 133 11 177 50 104 194 126 269 41 28 -33 34 -35 91
-35 39 0 60 4 60 12 0 26 -54 99 -93 126 -59 41 -99 52 -182 52 -60 0 -82 -5
-134 -31z"/>
<path d="M4710 695 l0 -295 60 0 60 0 0 115 0 115 29 0 c27 0 35 -9 93 -112
l63 -113 68 -3 c37 -2 67 0 67 3 0 4 -30 57 -66 118 -59 100 -64 113 -49 122
74 43 105 92 105 165 0 61 -18 100 -62 134 -49 36 -100 46 -240 46 l-128 0 0
-295z m289 171 c15 -14 21 -31 21 -62 0 -63 -31 -84 -121 -84 l-69 0 0 86 0
86 74 -4 c55 -2 80 -8 95 -22z"/>
<path d="M5240 695 l0 -295 60 0 60 0 2 188 3 187 27 -65 c15 -36 49 -119 76
-185 l50 -120 47 0 46 0 74 178 c40 98 76 181 79 184 3 4 6 -78 6 -181 l0
-187 58 3 57 3 0 290 0 290 -66 3 -66 3 -89 -206 c-50 -114 -94 -207 -99 -207
-4 1 -49 93 -98 206 l-90 206 -68 0 -69 0 0 -295z"/>
</g>
</svg>
